<svg xmlns="http://www.w3.org/2000/svg" width="1393" height="1699" viewBox="0 0 1393 1699" font-family="Arial, Helvetica, sans-serif">
<rect x="0" y="0" width="1393" height="1699" fill="#ffffff"/>
<text x="24" y="34" font-size="22" font-weight="700" fill="#111">Generated Wall Templates — Mama's Creations, IDDBA 2026 (20'×20')</text>
<rect x="24" y="54" width="16" height="12" fill="none" stroke="#00AEEF" stroke-width="2.5"/>
<text x="46" y="64" font-size="13" fill="#333">Bleed</text>
<rect x="93.0" y="54" width="16" height="12" fill="none" stroke="#111111" stroke-width="2.5"/>
<text x="115.0" y="64" font-size="13" fill="#333">Trim</text>
<rect x="155.0" y="54" width="16" height="12" fill="none" stroke="#EC008C" stroke-width="2.5"/>
<text x="177.0" y="64" font-size="13" fill="#333">Safe area</text>
<rect x="252.0" y="54" width="16" height="12" fill="none" stroke="#F7941E" stroke-width="2.5"/>
<text x="274.0" y="64" font-size="13" fill="#333">Keep-clear (fixture/TV/shelf)</text>
<rect x="489.0" y="54" width="16" height="12" fill="none" stroke="#39B54A" stroke-width="2.5"/>
<text x="511.0" y="64" font-size="13" fill="#333">Live art</text>
<rect x="579.0" y="54" width="16" height="12" fill="none" stroke="#ED1C24" stroke-width="2.5"/>
<text x="601.0" y="64" font-size="13" fill="#333">Door + holes</text>
<text x="24.0" y="110.0" font-size="12.5" font-weight="700" fill="#111">A</text>
<text x="24.0" y="123.0" font-size="10.5" fill="#666">78.12" × 173.32"</text>
<rect x="24.0" y="126.0" width="184.3" height="403.2" fill="none" stroke="#00AEEF" stroke-width="2"/>
<rect x="26.3" y="128.3" width="179.7" height="398.6" fill="none" stroke="#111111" stroke-width="1.6"/>
<rect x="35.5" y="137.5" width="161.3" height="380.2" fill="none" stroke="#EC008C" stroke-width="1.2" stroke-dasharray="5 4"/>
<rect x="26.3" y="308.0" width="90.0" height="219.0" fill="none" stroke="#ED1C24" stroke-width="1.8" stroke-dasharray="7 4"/>
<circle cx="36.2" cy="439.6" r="2.3" fill="none" stroke="#ED1C24" stroke-width="1.6"/>
<circle cx="36.2" cy="430.8" r="1.3" fill="none" stroke="#ED1C24" stroke-width="1.6"/>
<text x="29.3" y="320.0" font-size="8.5" font-weight="700" fill="#ED1C24">DOOR (L)</text>
<text x="324.1" y="110.0" font-size="12.5" font-weight="700" fill="#111">B</text>
<text x="324.1" y="123.0" font-size="10.5" fill="#666">78.12" × 173.32"</text>
<rect x="324.1" y="126.0" width="184.3" height="403.2" fill="none" stroke="#00AEEF" stroke-width="2"/>
<rect x="326.4" y="128.3" width="179.7" height="398.6" fill="none" stroke="#111111" stroke-width="1.6"/>
<rect x="335.6" y="137.5" width="161.3" height="380.2" fill="none" stroke="#EC008C" stroke-width="1.2" stroke-dasharray="5 4"/>
<text x="624.2" y="110.0" font-size="12.5" font-weight="700" fill="#111">C</text>
<text x="624.2" y="123.0" font-size="10.5" fill="#666">78.12" × 173.32"</text>
<rect x="624.2" y="126.0" width="184.3" height="403.2" fill="none" stroke="#00AEEF" stroke-width="2"/>
<rect x="626.5" y="128.3" width="179.7" height="398.6" fill="none" stroke="#111111" stroke-width="1.6"/>
<rect x="635.7" y="137.5" width="161.3" height="380.2" fill="none" stroke="#EC008C" stroke-width="1.2" stroke-dasharray="5 4"/>
<text x="834.5" y="110.0" font-size="12.5" font-weight="700" fill="#111">D</text>
<text x="834.5" y="123.0" font-size="10.5" fill="#666">78.12" × 173.32"</text>
<rect x="834.5" y="126.0" width="184.3" height="403.2" fill="none" stroke="#00AEEF" stroke-width="2"/>
<rect x="836.8" y="128.3" width="179.7" height="398.6" fill="none" stroke="#111111" stroke-width="1.6"/>
<rect x="846.0" y="137.5" width="161.3" height="380.2" fill="none" stroke="#EC008C" stroke-width="1.2" stroke-dasharray="5 4"/>
<text x="1095.1" y="110.0" font-size="12.5" font-weight="700" fill="#111">E1</text>
<text x="1095.1" y="123.0" font-size="10.5" fill="#666">117.18" × 114.7"</text>
<rect x="1095.1" y="260.8" width="274.1" height="268.4" fill="none" stroke="#00AEEF" stroke-width="2"/>
<rect x="1097.4" y="263.1" width="269.5" height="263.8" fill="none" stroke="#111111" stroke-width="1.6"/>
<rect x="1106.6" y="272.3" width="251.1" height="245.4" fill="none" stroke="#EC008C" stroke-width="1.2" stroke-dasharray="5 4"/>
<rect x="1115.3" y="406.2" width="233.7" height="120.7" fill="#F7941E22" stroke="#F7941E" stroke-width="1.6" stroke-dasharray="6 4"/>
<text x="1119.3" y="419.2" font-size="8.5" font-weight="700" fill="#F7941E">GLASS DISPLAY 101.6x52.5</text>
<text x="24.0" y="573.2" font-size="12.5" font-weight="700" fill="#111">E2</text>
<text x="24.0" y="586.2" font-size="10.5" fill="#666">117.18" × 114.7"</text>
<rect x="24.0" y="634.2" width="274.1" height="268.4" fill="none" stroke="#00AEEF" stroke-width="2"/>
<rect x="26.3" y="636.5" width="269.5" height="263.8" fill="none" stroke="#111111" stroke-width="1.6"/>
<rect x="35.5" y="645.7" width="251.1" height="245.4" fill="none" stroke="#EC008C" stroke-width="1.2" stroke-dasharray="5 4"/>
<text x="324.1" y="573.2" font-size="12.5" font-weight="700" fill="#111">E_Soffit</text>
<text x="324.1" y="586.2" font-size="10.5" fill="#666">117.18" × 9.76"</text>
<rect x="324.1" y="875.6" width="274.1" height="27.0" fill="none" stroke="#00AEEF" stroke-width="2"/>
<rect x="326.4" y="877.9" width="269.5" height="22.4" fill="none" stroke="#111111" stroke-width="1.6"/>
<rect x="335.6" y="887.1" width="251.1" height="4.0" fill="none" stroke="#EC008C" stroke-width="1.2" stroke-dasharray="5 4"/>
<text x="624.2" y="573.2" font-size="12.5" font-weight="700" fill="#111">F1</text>
<text x="624.2" y="586.2" font-size="10.5" fill="#666">78.12" × 134.26"</text>
<rect x="624.2" y="589.2" width="184.3" height="313.4" fill="none" stroke="#00AEEF" stroke-width="2"/>
<rect x="626.5" y="591.5" width="179.7" height="308.8" fill="none" stroke="#111111" stroke-width="1.6"/>
<rect x="635.7" y="600.7" width="161.3" height="290.4" fill="none" stroke="#EC008C" stroke-width="1.2" stroke-dasharray="5 4"/>
<rect x="626.5" y="591.5" width="179.7" height="89.8" fill="#39B54A22" stroke="#39B54A" stroke-width="1.6" stroke-dasharray="6 4"/>
<text x="630.5" y="604.5" font-size="8.5" font-weight="700" fill="#39B54A">LIVE 78.12x39.06</text>
<rect x="626.5" y="681.4" width="179.7" height="219.0" fill="#F7941E22" stroke="#F7941E" stroke-width="1.6" stroke-dasharray="6 4"/>
<text x="630.5" y="694.4" font-size="8.5" font-weight="700" fill="#F7941E">FRIDGE - no art</text>
<text x="834.5" y="573.2" font-size="12.5" font-weight="700" fill="#111">F2</text>
<text x="834.5" y="586.2" font-size="10.5" fill="#666">41.31" × 134.26"</text>
<rect x="834.5" y="589.2" width="99.6" height="313.4" fill="none" stroke="#00AEEF" stroke-width="2"/>
<rect x="836.8" y="591.5" width="95.0" height="308.8" fill="none" stroke="#111111" stroke-width="1.6"/>
<rect x="846.0" y="600.7" width="76.6" height="290.4" fill="none" stroke="#EC008C" stroke-width="1.2" stroke-dasharray="5 4"/>
<text x="1095.1" y="573.2" font-size="12.5" font-weight="700" fill="#111">F3</text>
<text x="1095.1" y="586.2" font-size="10.5" fill="#666">78.12" × 134.26"</text>
<rect x="1095.1" y="589.2" width="184.3" height="313.4" fill="none" stroke="#00AEEF" stroke-width="2"/>
<rect x="1097.4" y="591.5" width="179.7" height="308.8" fill="none" stroke="#111111" stroke-width="1.6"/>
<rect x="1106.6" y="600.7" width="161.3" height="290.4" fill="none" stroke="#EC008C" stroke-width="1.2" stroke-dasharray="5 4"/>
<text x="24.0" y="946.6" font-size="12.5" font-weight="700" fill="#111">F4</text>
<text x="24.0" y="959.6" font-size="10.5" fill="#666">41.31" × 134.26"</text>
<rect x="24.0" y="962.6" width="99.6" height="313.4" fill="none" stroke="#00AEEF" stroke-width="2"/>
<rect x="26.3" y="964.9" width="95.0" height="308.8" fill="none" stroke="#111111" stroke-width="1.6"/>
<rect x="35.5" y="974.1" width="76.6" height="290.4" fill="none" stroke="#EC008C" stroke-width="1.2" stroke-dasharray="5 4"/>
<text x="324.1" y="946.6" font-size="12.5" font-weight="700" fill="#111">Counter_1</text>
<text x="324.1" y="959.6" font-size="10.5" fill="#666">58.5" × 37.5"</text>
<rect x="324.1" y="1185.2" width="139.1" height="90.8" fill="none" stroke="#00AEEF" stroke-width="2"/>
<rect x="326.4" y="1187.5" width="134.5" height="86.2" fill="none" stroke="#111111" stroke-width="1.6"/>
<rect x="335.6" y="1196.7" width="116.1" height="67.8" fill="none" stroke="#EC008C" stroke-width="1.2" stroke-dasharray="5 4"/>
<text x="624.2" y="946.6" font-size="12.5" font-weight="700" fill="#111">Counter_2</text>
<text x="624.2" y="959.6" font-size="10.5" fill="#666">58.5" × 37.5"</text>
<rect x="624.2" y="1185.2" width="139.1" height="90.8" fill="none" stroke="#00AEEF" stroke-width="2"/>
<rect x="626.5" y="1187.5" width="134.5" height="86.2" fill="none" stroke="#111111" stroke-width="1.6"/>
<rect x="635.7" y="1196.7" width="116.1" height="67.8" fill="none" stroke="#EC008C" stroke-width="1.2" stroke-dasharray="5 4"/>
<text x="834.5" y="946.6" font-size="12.5" font-weight="700" fill="#111">LCounter_Front</text>
<text x="834.5" y="959.6" font-size="10.5" fill="#666">100.0" × 37.5"</text>
<rect x="834.5" y="1185.2" width="234.6" height="90.8" fill="none" stroke="#00AEEF" stroke-width="2"/>
<rect x="836.8" y="1187.5" width="230.0" height="86.2" fill="none" stroke="#111111" stroke-width="1.6"/>
<rect x="846.0" y="1196.7" width="211.6" height="67.8" fill="none" stroke="#EC008C" stroke-width="1.2" stroke-dasharray="5 4"/>
<text x="1095.1" y="946.6" font-size="12.5" font-weight="700" fill="#111">LCounter_Side</text>
<text x="1095.1" y="959.6" font-size="10.5" fill="#666">59.0" × 37.5"</text>
<rect x="1095.1" y="1185.2" width="140.3" height="90.8" fill="none" stroke="#00AEEF" stroke-width="2"/>
<rect x="1097.4" y="1187.5" width="135.7" height="86.2" fill="none" stroke="#111111" stroke-width="1.6"/>
<rect x="1106.6" y="1196.7" width="117.3" height="67.8" fill="none" stroke="#EC008C" stroke-width="1.2" stroke-dasharray="5 4"/>
<text x="24.0" y="1320.0" font-size="12.5" font-weight="700" fill="#111">Fridge_Fabric_A</text>
<text x="24.0" y="1333.0" font-size="10.5" fill="#666">39.06" × 134.26"</text>
<rect x="24.0" y="1336.0" width="94.4" height="313.4" fill="none" stroke="#00AEEF" stroke-width="2"/>
<rect x="26.3" y="1338.3" width="89.8" height="308.8" fill="none" stroke="#111111" stroke-width="1.6"/>
<rect x="35.5" y="1347.5" width="71.4" height="290.4" fill="none" stroke="#EC008C" stroke-width="1.2" stroke-dasharray="5 4"/>
<text x="324.1" y="1320.0" font-size="12.5" font-weight="700" fill="#111">Fridge_Fabric_B</text>
<text x="324.1" y="1333.0" font-size="10.5" fill="#666">39.06" × 134.26"</text>
<rect x="324.1" y="1336.0" width="94.4" height="313.4" fill="none" stroke="#00AEEF" stroke-width="2"/>
<rect x="326.4" y="1338.3" width="89.8" height="308.8" fill="none" stroke="#111111" stroke-width="1.6"/>
<rect x="335.6" y="1347.5" width="71.4" height="290.4" fill="none" stroke="#EC008C" stroke-width="1.2" stroke-dasharray="5 4"/>
<text x="624.2" y="1320.0" font-size="12.5" font-weight="700" fill="#111">Fridge_Fabric_C</text>
<text x="624.2" y="1333.0" font-size="10.5" fill="#666">78.12" × 134.26"</text>
<rect x="624.2" y="1336.0" width="184.3" height="313.4" fill="none" stroke="#00AEEF" stroke-width="2"/>
<rect x="626.5" y="1338.3" width="179.7" height="308.8" fill="none" stroke="#111111" stroke-width="1.6"/>
<rect x="635.7" y="1347.5" width="161.3" height="290.4" fill="none" stroke="#EC008C" stroke-width="1.2" stroke-dasharray="5 4"/>
</svg>